<svg width="166" height="30" viewBox="0 0 166 30" fill="none" xmlns="http://www.w3.org/2000/svg">
<g clip-path="url(#clip0_729_317)">
<path d="M0.046031 0.474485C-0.0153437 0.576777 -0.0153437 7.18481 0.046031 15.1431L0.189239 29.6276L9.57956 29.689C17.1491 29.7299 18.9699 29.689 18.9699 29.4639C18.9699 29.3207 18.0697 28.6047 16.9854 27.8886C8.88398 22.5286 4.87417 19.6644 4.5673 19.0097C3.97952 17.8936 4.13886 17.2315 4.54803 16.1881C4.97765 15.1242 5.60479 14.4826 6.93458 14.4826C7.8552 14.4826 8.53936 14.7194 9.66456 15.6196C11.4035 17.0312 12.7353 17.3251 14.7811 17.3251C17.2565 17.3251 18.5312 16.5489 19.3291 14.4826C19.9838 12.7641 19.861 8.45521 19.3291 5.38646C18.7972 2.42001 17.1696 0.863194 17.1696 0.863194L16.2285 0.269903H8.20886C3.11476 0.269903 0.127864 0.351736 0.046031 0.474485Z" fill="white"/>
<path d="M19.9922 0.454123C19.9922 0.556416 20.1354 0.740541 20.299 0.883749C21.4242 1.82483 22.5494 9.68083 22.038 13.0564C21.547 16.3502 20.5854 17.9869 18.5396 19.0917C17.353 19.7259 17.0257 19.8077 15.2458 19.8691C12.7295 19.9714 10.9701 19.5008 9.10838 18.171C7.39078 16.7567 6.91935 16.698 6.67385 17.0663C6.48071 17.356 6.48071 17.5507 6.48071 17.7005C6.48071 18.0892 7.0421 18.4779 14.2639 23.3879C17.128 25.3314 20.4013 27.5614 21.547 28.3388L23.5928 29.73H25.9864H28.38V15V0.269999H24.1861C21.8743 0.269999 19.9922 0.351831 19.9922 0.454123Z" fill="white"/>
</g>
<path d="M37.3654 21V8.53346H38.766V19.5995H49.8147V21H37.3654ZM52.863 21C52.4826 21 52.131 20.9078 51.8082 20.7234C51.497 20.5389 51.2492 20.2911 51.0647 19.9799C50.8803 19.6571 50.7881 19.3055 50.7881 18.9251V10.6256C50.7881 10.2452 50.8803 9.89942 51.0647 9.58819C51.2492 9.26543 51.497 9.01184 51.8082 8.8274C52.131 8.64297 52.4826 8.55076 52.863 8.55076H61.1625C61.5429 8.55076 61.8887 8.64297 62.1999 8.8274C62.5227 9.01184 62.7763 9.26543 62.9607 9.58819C63.1451 9.89942 63.2373 10.2452 63.2373 10.6256V18.9251C63.2373 19.3055 63.1451 19.6571 62.9607 19.9799C62.7763 20.2911 62.5227 20.5389 62.1999 20.7234C61.8887 20.9078 61.5429 21 61.1625 21H52.863ZM52.863 19.5995H61.1625C61.3469 19.5995 61.5025 19.5361 61.6293 19.4093C61.7676 19.2709 61.8368 19.1096 61.8368 18.9251V10.6256C61.8368 10.4412 61.7676 10.2856 61.6293 10.1588C61.5025 10.0205 61.3469 9.95129 61.1625 9.95129H52.863C52.6785 9.95129 52.5172 10.0205 52.3788 10.1588C52.252 10.2856 52.1886 10.4412 52.1886 10.6256V18.9251C52.1886 19.1096 52.252 19.2709 52.3788 19.4093C52.5172 19.5361 52.6785 19.5995 52.863 19.5995ZM66.3172 21C65.9368 21 65.5853 20.9078 65.2625 20.7234C64.9513 20.5389 64.7034 20.2911 64.519 19.9799C64.3346 19.6571 64.2424 19.3055 64.2424 18.9251V17.9396H65.6429V18.9251C65.6429 19.1096 65.7063 19.2709 65.8331 19.4093C65.9714 19.5361 66.1328 19.5995 66.3172 19.5995H74.6167C74.8012 19.5995 74.9568 19.5361 75.0836 19.4093C75.2219 19.2709 75.2911 19.1096 75.2911 18.9251V8.55076H76.6916V18.9251C76.6916 19.3055 76.5994 19.6571 76.415 19.9799C76.2305 20.2911 75.9769 20.5389 75.6542 20.7234C75.3429 20.9078 74.9971 21 74.6167 21H66.3172ZM78.6675 21V10.6256C78.6675 10.2452 78.7597 9.89942 78.9441 9.58819C79.1285 9.26543 79.3764 9.01184 79.6876 8.8274C80.0104 8.64297 80.3619 8.55076 80.7423 8.55076H89.0418C89.4222 8.55076 89.768 8.64297 90.0793 8.8274C90.402 9.01184 90.6556 9.26543 90.8401 9.58819C91.0245 9.89942 91.1167 10.2452 91.1167 10.6256V21H89.7162V16.4526H80.068V21H78.6675ZM80.068 15.052H89.7162V10.6256C89.7162 10.4412 89.647 10.2856 89.5087 10.1588C89.3819 10.0205 89.2263 9.95129 89.0418 9.95129H80.7423C80.5579 9.95129 80.3965 10.0205 80.2582 10.1588C80.1314 10.2856 80.068 10.4412 80.068 10.6256V15.052ZM108.31 21L104.247 16.1586H106.08L110.161 20.9827V21H108.31ZM97.7978 21V8.56805H108.172C108.553 8.56805 108.898 8.66603 109.21 8.86199C109.532 9.04642 109.786 9.29425 109.97 9.60548C110.155 9.91671 110.247 10.2625 110.247 10.6429V14.2912C110.247 14.6716 110.155 15.0174 109.97 15.3287C109.786 15.6399 109.532 15.8935 109.21 16.0895C108.898 16.2739 108.553 16.3661 108.172 16.3661H99.1983V21H97.7978ZM99.8727 14.9483H108.172C108.357 14.9483 108.512 14.8849 108.639 14.7581C108.777 14.6313 108.846 14.4757 108.846 14.2912V10.6429C108.846 10.4585 108.777 10.3029 108.639 10.1761C108.512 10.0377 108.357 9.96859 108.172 9.96859H99.8727C99.6882 9.96859 99.5268 10.0377 99.3885 10.1761C99.2617 10.3029 99.1983 10.4585 99.1983 10.6429V14.2912C99.1983 14.4757 99.2617 14.6313 99.3885 14.7581C99.5268 14.8849 99.6882 14.9483 99.8727 14.9483ZM112.1 21V8.55076H123.46V9.95129H113.501V14.0665H121.507V15.4843H113.501V19.5995H123.46V21H112.1ZM125.339 21V8.55076H136.699V9.95129H126.739V14.0665H134.745V15.4843H126.739V21H125.339ZM137.834 21V10.6256C137.834 10.2452 137.926 9.89942 138.11 9.58819C138.295 9.26543 138.543 9.01184 138.854 8.8274C139.177 8.64297 139.528 8.55076 139.909 8.55076H148.208C148.589 8.55076 148.934 8.64297 149.246 8.8274C149.568 9.01184 149.822 9.26543 150.006 9.58819C150.191 9.89942 150.283 10.2452 150.283 10.6256V21H148.883V16.4526H139.234V21H137.834ZM139.234 15.052H148.883V10.6256C148.883 10.4412 148.813 10.2856 148.675 10.1588C148.548 10.0205 148.393 9.95129 148.208 9.95129H139.909C139.724 9.95129 139.563 10.0205 139.425 10.1588C139.298 10.2856 139.234 10.4412 139.234 10.6256V15.052ZM152.08 21V20.9827L157.302 14.7754L152.08 8.56805V8.55076H153.878L158.218 13.6861L162.541 8.55076H164.339V8.56805L159.117 14.7754L164.357 20.9827V21H162.541L158.218 15.8647L153.878 21H152.08Z" fill="white"/>
<defs>
<clipPath id="clip0_729_317">
<rect y="0.27002" width="28.3799" height="29.46" rx="3.14563" fill="white"/>
</clipPath>
</defs>
</svg>
