<svg width="24" height="25" viewBox="0 0 24 25" fill="none" xmlns="http://www.w3.org/2000/svg">
<path d="M24 18.6222C24 19.3295 23.719 20.0078 23.219 20.5079C22.7189 21.0079 22.0406 21.2889 21.3333 21.2889H2.66667C1.95942 21.2889 1.28115 21.0079 0.781049 20.5079C0.280952 20.0078 0 19.3295 0 18.6222V6.62223C0 5.91499 0.280952 5.23671 0.781049 4.73661C1.28115 4.23652 1.95942 3.95557 2.66667 3.95557H21.3333C22.0406 3.95557 22.7189 4.23652 23.219 4.73661C23.719 5.23671 24 5.91499 24 6.62223V18.6222Z" fill="#009B3A"/>
<path d="M21.8187 12.6222L12.0001 20.0382L2.1814 12.6222L12.0001 5.20557L21.8187 12.6222Z" fill="#FEDF01"/>
<path d="M11.984 16.8768C14.3618 16.8768 16.2894 14.9492 16.2894 12.5714C16.2894 10.1937 14.3618 8.26611 11.984 8.26611C9.60627 8.26611 7.67871 10.1937 7.67871 12.5714C7.67871 14.9492 9.60627 16.8768 11.984 16.8768Z" fill="#002776"/>
<path d="M8.18457 10.5469C7.96089 10.9683 7.80946 11.4242 7.73657 11.8956C10.3999 11.7023 14.0146 13.1563 15.5659 14.9589C15.8339 14.5563 16.0326 14.1056 16.1546 13.6229C14.2399 11.7509 10.8766 10.5363 8.18457 10.5469Z" fill="#CBE9D4"/>
<path d="M8 12.7773H8.66667V13.444H8V12.7773ZM8.66667 14.1107H9.33333V14.7773H8.66667V14.1107Z" fill="#88C9F9"/>
<path d="M10 12.7772H10.6667V13.4438H10V12.7772ZM11.3333 13.4438H12V14.1105H11.3333V13.4438ZM14 14.7772H14.6667V15.4438H14V14.7772ZM12 15.4438H12.6667V16.1105H12V15.4438ZM14 11.4438H14.6667V12.1105H14V11.4438Z" fill="#55ACEE"/>
<path d="M12.6667 14.1108H13.3334V14.7775H12.6667V14.1108Z" fill="#3B88C3"/>
</svg>
